<svg xmlns="http://www.w3.org/2000/svg" xmlns:xlink="http://www.w3.org/1999/xlink" id="Layer_1" viewBox="0 0 563.18 233.91"><defs><style>.cls-1{fill:none;}.cls-2{fill:url(#linear-gradient-4);}.cls-3{fill:url(#linear-gradient-3);}.cls-4{fill:url(#linear-gradient-2);}.cls-5{fill:url(#linear-gradient);}.cls-6{clip-path:url(#clippath-1);}.cls-7{clip-path:url(#clippath);}</style><clipPath id="clippath"><path class="cls-1" d="M30.89,180.71v4.74h5.08v9.85h7.05v-9.85h5.06v-4.74h-17.19ZM61.96,180.71v5.06h-3.6v-5.06h-7.05v14.59h7.05v-5.25h3.6v5.25h7.05v-14.59h-7.05ZM72.71,180.71v14.59h31.75v-3.86h-24.7v-1.75h23.63v-3.5h-23.63v-1.6h24.7v-3.87h-31.75ZM119.59,180.71v7.95c0,1.34-.54,1.9-1.92,1.9h-2.55v4.74h5.01c4.76,0,6.52-1.58,6.52-6.2v-8.39h-7.06ZM130.19,180.71v14.59h15.34v-3.86h-8.29v-1.75h7.22v-3.5h-7.22v-1.6h8.29v-3.87h-15.34ZM168.05,180.71l-1.7,8.24-2.36-8.24h-5.84l-2.36,8.24-1.73-8.24h-6.08l3.62,14.59h7.22l2.21-7.83h.07l2.21,7.83h7.17l3.62-14.59h-6.08.03ZM176.95,195.3h7.05v-14.59h-7.05v14.59ZM192.51,180.71c-3.77,0-5.25,1.7-5.25,3.84,0,1.95,1.21,3.28,3.26,3.87l2.8.7c.7.17.97.41.97.85,0,.39-.32.66-1.05.66h-5.74v4.67h10.84c3.7,0,5.3-1.63,5.3-3.91,0-1.92-1.02-3.16-3.38-3.87l-2.7-.71c-.68-.17-.95-.41-.95-.83,0-.34.22-.61,1-.61h5.62v-4.67h-10.72,0ZM233.94,180.71v5.06h-20.01v-5.06h-7.05v14.59h7.05v-5.25h20.01v5.25h7.05v-14.59h-7.05ZM258.81,180.71c-4.47,0-6.64,1.97-6.64,6.49v1.6c0,4.52,2.17,6.49,6.64,6.49h25.87v-4.74h-22.83c-1.7,0-2.33-.68-2.33-2.24v-.63c0-1.56.63-2.24,2.33-2.24h22.76v-4.74h-25.8,0ZM298.88,180.71v8c0,1.36-.54,1.85-1.61,1.85h-.68c-1.1,0-1.63-.49-1.63-1.85v-8h-7.05v8.07c0,4.55,2.16,6.52,6.59,6.52h4.89c4.4,0,6.54-1.97,6.54-6.52v-8.07h-7.05ZM309.51,180.71v14.59h15.37v-4.74h-8.32v-9.85h-7.05ZM324.97,180.71v4.74h5.08v9.85h7.05v-9.85h5.06v-4.74h-17.19,0ZM356.22,180.71v8c0,1.36-.53,1.85-1.6,1.85h-.68c-1.09,0-1.63-.49-1.63-1.85v-8h-7.05v8.07c0,4.55,2.16,6.52,6.59,6.52h4.89c4.4,0,6.54-1.97,6.54-6.52v-8.07h-7.06ZM373.89,184.58h1.92c1.12,0,1.53.32,1.53,1.17v.49c0,.83-.41,1.14-1.53,1.14h-1.92v-2.8ZM366.84,180.71v14.59h7.05v-4.86h1.9l1.9,4.86h7.1v-.17l-2.36-5.23c1.56-.71,2.16-2.07,2.16-4.09v-.68c0-2.94-1.97-4.43-6.59-4.43h-11.16ZM387.95,180.71v14.59h15.34v-3.86h-8.29v-1.75h7.22v-3.5h-7.22v-1.6h8.29v-3.87h-15.34ZM420.75,180.71c-4.47,0-6.64,1.97-6.64,6.49v1.6c0,4.52,2.16,6.49,6.64,6.49h25.87v-4.74h-22.83c-1.7,0-2.33-.68-2.33-2.24v-.63c0-1.56.63-2.24,2.33-2.24h22.76v-4.74h-25.8ZM450.04,180.71v14.59h15.37v-4.74h-8.32v-9.85h-7.05ZM479.22,180.71v8c0,1.36-.54,1.85-1.6,1.85h-.68c-1.09,0-1.63-.49-1.63-1.85v-8h-7.05v8.07c0,4.55,2.16,6.52,6.59,6.52h4.89c4.4,0,6.54-1.97,6.54-6.52v-8.07h-7.06ZM496.75,189.39h27.14c1.02,0,1.51.39,1.51,1.14v.15c0,.75-.49,1.14-1.51,1.14h-27.14v-2.43ZM496.75,184.19h26.9c.95,0,1.41.41,1.41,1.17v.07c0,.75-.46,1.19-1.41,1.19h-26.9v-2.43h0ZM489.85,180.71v14.59h36.92c3.72,0,5.52-1.48,5.52-4.23v-.41c0-1.53-.63-2.6-1.95-3.16,1.02-.56,1.56-1.56,1.56-2.85v-.51c0-2.12-1.63-3.43-5.25-3.43h-36.8Z"></path></clipPath><linearGradient id="linear-gradient" x1="230.3" y1="-244.61" x2="231.3" y2="-244.61" gradientTransform="translate(-115439.17 122835.47) scale(501.4)" gradientUnits="userSpaceOnUse"><stop offset="0" stop-color="#ca7383"></stop><stop offset=".79" stop-color="#53b9cc"></stop><stop offset=".82" stop-color="#53b9cc"></stop><stop offset="1" stop-color="#53b9cc"></stop></linearGradient><clipPath id="clippath-1"><path class="cls-1" d="M283.86,118.68c-.52.54-.79,1.33-.79,2.34,0,.89.31,1.64.92,2.25s1.37.91,2.26.91,1.62-.31,2.24-.93c.63-.62.94-1.37.94-2.23s-.31-1.64-.94-2.25c-.62-.61-1.37-.91-2.24-.91-1.07,0-1.87.27-2.4.82M292.13,117.86c.1.41.15,1.16.15,2.25,0,2.9-.81,5.02-2.42,6.38-1.61,1.36-3.88,2.04-6.79,2.04v3.81c8.69,0,13.04-4.32,13.04-12.96,0-.2-.01-.43-.04-.69s-.07-.53-.12-.84h-3.84.02ZM433.34,117.86v4.08c-4.07,1.08-6.1,3.85-6.1,8.3v4.3h4.39v-2.06c0-4.36,1.27-6.54,3.82-6.54s4,2.18,4,6.54v2.06h4.39v-4.3c0-4.45-2.03-7.21-6.1-8.3v-4.08h-4.4ZM353.28,68.18l5.03,5.03,5.03-5.03-5.03-5.03-5.03,5.03ZM486.78,75.8h.33l9.66,26.47h-19.65l9.66-26.47ZM488.66,58l-25.31,64.43c-.74,1.88-1.5,3.25-2.27,4.11-.78.86-1.74,1.43-2.89,1.69-1.15.26-2.83.39-5.05.39v3.72h23.09v-3.72h-4.22c-2.22,0-3.33-.75-3.33-2.25,0-.6.15-1.31.44-2.14l6.44-17.57h22.76l6.33,17.23c.37.98.55,1.77.55,2.37,0,1.58-1,2.37-3,2.37h-5.44v3.72h35.52v-3.72c-2.15,0-3.7-.11-4.66-.34-.96-.23-1.7-.69-2.22-1.41-.52-.71-1.11-2.01-1.78-3.89l-23.53-64.99h-11.43ZM205.27,56.35v3.8c2.53,0,4.33.16,5.41.46,1.07.31,1.77.88,2.07,1.73.31.84.46,2.34.46,4.49v55.27c0,2.07-.15,3.53-.46,4.38-.31.84-.98,1.4-2.01,1.67-1.04.27-2.86.4-5.47.4v3.8h61.02l1.38-20.03h-4.72c-1.23,5.99-3.68,10.11-7.37,12.38-3.68,2.26-8.83,3.4-15.43,3.4-2.3,0-3.93-.15-4.89-.46s-1.57-.86-1.84-1.67c-.27-.81-.4-2.24-.4-4.32v-54.81c0-2.07.17-3.55.52-4.43s1.04-1.48,2.07-1.79c1.04-.31,2.78-.46,5.24-.46v-3.8h-35.58ZM378.4,56.35l-19.11,49.74h-.11l-19.69-49.74h-27.98v3.8c2.53.08,4.35.27,5.47.58,1.11.31,1.84.88,2.19,1.73.35.85.52,2.26.52,4.26v55.73c0,1.69-.15,2.94-.46,3.74-.31.81-.92,1.4-1.84,1.78-.92.39-2.34.58-4.26.58h-1.5v3.8h21.65v-3.8h-2.3c-2.76,0-4.55-.38-5.35-1.15-.81-.77-1.21-2.42-1.21-4.95v-51.12h.11l23.03,58.38h7.37l22.34-59.53h.23v51.93c0,1.92-.15,3.3-.46,4.14-.31.85-.94,1.44-1.9,1.79-.96.34-2.55.52-4.78.52v3.8h34.77v-3.8c-2.38,0-4.11-.15-5.18-.46-1.08-.31-1.78-.9-2.13-1.78s-.52-2.28-.52-4.2v-55.38c0-2,.15-3.41.46-4.26.31-.84,1-1.42,2.07-1.73,1.07-.31,2.84-.5,5.3-.58v-3.8h-26.71l-.02-.02ZM353.28,56.74l5.03,5.03,5.03-5.03-5.03-5.03-5.03,5.03ZM151.39,111.37c-2.85-5.87-4.28-15.08-4.28-27.61s1.43-21.73,4.28-27.61c2.85-5.87,7.82-8.81,14.89-8.81,6.59,0,11.43,3.01,14.53,9.05,3.09,6.03,4.64,15.15,4.64,27.37s-1.43,21.74-4.28,27.61-7.82,8.81-14.89,8.81-12.04-2.94-14.89-8.81M135.96,53.84c-7.11,6.94-10.67,16.91-10.67,29.91s3.56,22.98,10.67,29.91c7.11,6.94,17.22,10.41,30.32,10.41s23.2-3.47,30.32-10.41c7.11-6.94,10.67-16.91,10.67-29.91s-3.56-22.98-10.67-29.91-17.22-10.41-30.32-10.41-23.21,3.47-30.32,10.41M430.22,106.31c-1.08-1.04-1.62-2.97-1.62-5.81v-26.48h5.55c5.09,0,9.02,1.55,11.8,4.66,2.78,3.11,4.16,7.54,4.16,13.3,0,10.59-4.63,15.89-13.88,15.89-2.93,0-4.94-.52-6.02-1.55M428.6,45.22c0-1.46.12-2.49.35-3.11.23-.61.69-1.02,1.39-1.21.69-.19,1.93-.29,3.7-.29,9.41,0,14.11,4.72,14.11,14.16s-4.74,14.74-14.23,14.74h-5.32v-24.29ZM400.72,36.24v3.8c2.54,0,4.34.14,5.38.4,1.04.27,1.73.85,2.08,1.73.35.88.52,2.4.52,4.55v55.27c0,1.84-.19,3.21-.58,4.09-.39.88-1.14,1.5-2.26,1.84-1.12.34-2.83.52-5.15.52v3.8h38.63c20.66,0,31-6.79,31-20.38,0-11.28-7.02-18.15-21.05-20.61v-.11c5.86-1.23,10.29-3.3,13.3-6.22,3.01-2.92,4.51-6.64,4.51-11.17,0-5.76-2.45-10.11-7.34-13.07-4.9-2.95-12.13-4.43-21.69-4.43h-37.36,0ZM269.91,53.31h.35l10,27.2h-20.35l10-27.2ZM271.86,35.03l-26.21,66.2c-.77,1.93-1.55,3.34-2.36,4.22-.81.89-1.8,1.47-2.99,1.74-1.19.27-2.93.4-5.23.4v3.82h23.91v-3.82h-4.37c-2.3,0-3.45-.77-3.45-2.32,0-.62.15-1.35.46-2.2l6.67-18.05h23.57l6.55,17.71c.38,1,.58,1.82.58,2.43,0,1.62-1.04,2.43-3.1,2.43h-5.63v3.82h36.79v-3.82c-2.22,0-3.83-.12-4.83-.35s-1.76-.71-2.3-1.45c-.54-.73-1.15-2.06-1.84-3.99l-24.37-66.78h-11.85ZM208.68,49.42c0,.61.08,1.37.25,2.29h6.25c-.17-.69-.25-1.81-.25-3.37,0-4.31,1.32-7.49,3.97-9.54s6.33-3.09,11.04-3.09v-5.71c-14.17,0-21.26,6.48-21.26,19.43M374.79,35.7c4.71,0,8.39,1.03,11.04,3.09s3.97,5.24,3.97,9.54c0,1.56-.09,2.69-.25,3.37h6.25c.17-.91.25-1.68.25-2.29,0-12.95-7.09-19.43-21.26-19.43v5.71h0ZM103.48,23.41v5.45h4.3c1.65,0,2.89.33,3.72.99s1.24,1.49,1.24,2.48c0,1.54-.77,3.08-2.32,4.62l-39.69,38.78v-37.3c0-2.97.25-5.09.74-6.35.5-1.26,1.49-2.12,2.98-2.56,1.49-.44,3.99-.66,7.52-.66v-5.45H30.89v5.45c3.64,0,6.23.22,7.77.66,1.54.44,2.53,1.27,2.98,2.48.44,1.21.66,3.36.66,6.44v79.22c0,2.97-.22,5.06-.66,6.27-.44,1.21-1.4,2.01-2.89,2.39-1.49.39-4.11.58-7.86.58v5.45h51.1v-5.45c-3.75,0-6.37-.19-7.85-.58-1.49-.38-2.43-1.18-2.81-2.39-.39-1.21-.58-3.3-.58-6.27v-33.5l4.13-3.8,26.79,37.63c1.87,2.75,2.81,4.84,2.81,6.27,0,1.76-1.38,2.64-4.13,2.64h-5.62v5.45h53.58v-5.45c-2.54,0-4.77-.6-6.7-1.82-1.93-1.21-3.8-2.94-5.62-5.2-1.82-2.25-4.44-5.86-7.85-10.81-.77-.99-2.48-3.41-5.13-7.26l-28.61-40.27,15.38-14.69,5.29-5.12c4.74-4.73,8.52-8.06,11.33-9.99,2.81-1.92,5.98-2.89,9.51-2.89v-5.44h-32.43Z"></path></clipPath><linearGradient id="linear-gradient-2" y1="-244.71" y2="-244.71" gradientTransform="translate(-115439.08 122774.6) scale(501.4)" xlink:href="#linear-gradient"></linearGradient><linearGradient id="linear-gradient-3" y1="-244.6" y2="-244.6" gradientTransform="translate(-115439.24 122859) scale(501.4)" xlink:href="#linear-gradient"></linearGradient><linearGradient id="linear-gradient-4" y1="-244.6" y2="-244.6" gradientTransform="translate(-115439.24 122800.44) scale(501.4)" xlink:href="#linear-gradient"></linearGradient></defs><g class="cls-7"><rect class="cls-5" x="30.89" y="180.71" width="501.4" height="14.59"></rect></g><g class="cls-6"><rect class="cls-4" x="30.89" y="23.41" width="501.4" height="111.13"></rect></g><polyline class="cls-3" points="30.89 216.79 532.29 216.79 532.29 217.79 30.89 217.79"></polyline><polyline class="cls-2" points="30.89 158.22 532.29 158.22 532.29 159.22 30.89 159.22"></polyline></svg>